<svg xmlns="http://www.w3.org/2000/svg" version="1.1" width="190mm" height="250mm" viewBox="0 0 190 250">
<title>PLG signal book (UTP d74c18b)</title>
<g id="pen-outline" stroke="#111111" stroke-width="0.4" stroke-linecap="round" stroke-linejoin="round">
<path d="M35.207,24.374 L35.142,24.782 L34.955,25.150 L34.662,25.442 L34.294,25.629 L33.886,25.694 L33.478,25.629 L33.110,25.442 L32.818,25.150 L32.631,24.782 L32.566,24.374 L32.631,23.966 L32.818,23.597 L33.110,23.305 L33.478,23.118 L33.886,23.053 L34.294,23.118 L34.662,23.305 L34.955,23.597 L35.142,23.966 Z" fill="none"/>
<path d="M33.886,25.694 L33.886,32.484" fill="none"/>
<path d="M31.623,38.709 L33.886,32.484 L36.150,38.709" fill="none"/>
<path d="M33.886,26.448 L33.886,33.050" fill="none"/>
<path d="M33.886,33.050 L33.886,35.880 L31.057,35.880 L31.057,33.050 Z" fill="none"/>
<path d="M33.886,33.050 L31.057,35.880" fill="none"/>
<path d="M33.886,26.448 L29.218,31.117" fill="none"/>
<path d="M29.218,31.117 L27.217,33.117 L25.217,31.117 L27.217,29.116 Z" fill="none"/>
<path d="M29.218,31.117 L25.217,31.117" fill="none"/>
<path d="M55.578,24.374 L55.513,24.782 L55.326,25.150 L55.034,25.442 L54.666,25.629 L54.258,25.694 L53.850,25.629 L53.481,25.442 L53.189,25.150 L53.002,24.782 L52.937,24.374 L53.002,23.966 L53.189,23.597 L53.481,23.305 L53.850,23.118 L54.258,23.053 L54.666,23.118 L55.034,23.305 L55.326,23.597 L55.513,23.966 Z" fill="none"/>
<path d="M54.258,25.694 L54.258,32.484" fill="none"/>
<path d="M51.994,38.709 L54.258,32.484 L56.521,38.709" fill="none"/>
<path d="M54.258,26.448 L54.258,33.050" fill="none"/>
<path d="M54.258,33.050 L54.258,35.880 L51.428,35.880 L51.428,33.050 Z" fill="none"/>
<path d="M54.258,33.050 L51.428,35.880" fill="none"/>
<path d="M54.258,26.448 L47.656,26.448" fill="none"/>
<path d="M47.656,26.448 L44.826,26.448 L44.826,23.619 L47.656,23.619 Z" fill="none"/>
<path d="M47.656,26.448 L44.826,23.619" fill="none"/>
<path d="M75.949,24.374 L75.885,24.782 L75.697,25.150 L75.405,25.442 L75.037,25.629 L74.629,25.694 L74.221,25.629 L73.853,25.442 L73.561,25.150 L73.373,24.782 L73.308,24.374 L73.373,23.966 L73.561,23.597 L73.853,23.305 L74.221,23.118 L74.629,23.053 L75.037,23.118 L75.405,23.305 L75.697,23.597 L75.885,23.966 Z" fill="none"/>
<path d="M74.629,25.694 L74.629,32.484" fill="none"/>
<path d="M72.365,38.709 L74.629,32.484 L76.892,38.709" fill="none"/>
<path d="M74.629,26.448 L74.629,33.050" fill="none"/>
<path d="M74.629,33.050 L74.629,35.880 L71.799,35.880 L71.799,33.050 Z" fill="none"/>
<path d="M74.629,33.050 L71.799,35.880" fill="none"/>
<path d="M74.629,26.448 L69.961,21.780" fill="none"/>
<path d="M69.961,21.780 L67.960,19.780 L69.961,17.779 L71.961,19.780 Z" fill="none"/>
<path d="M69.961,21.780 L69.961,17.779" fill="none"/>
<path d="M96.320,24.374 L96.256,24.782 L96.068,25.150 L95.776,25.442 L95.408,25.629 L95.000,25.694 L94.592,25.629 L94.224,25.442 L93.932,25.150 L93.744,24.782 L93.680,24.374 L93.744,23.966 L93.932,23.597 L94.224,23.305 L94.592,23.118 L95.000,23.053 L95.408,23.118 L95.776,23.305 L96.068,23.597 L96.256,23.966 Z" fill="none"/>
<path d="M95.000,25.694 L95.000,32.484" fill="none"/>
<path d="M92.737,38.709 L95.000,32.484 L97.263,38.709" fill="none"/>
<path d="M95.000,26.448 L95.000,33.050" fill="none"/>
<path d="M95.000,33.050 L95.000,35.880 L92.171,35.880 L92.171,33.050 Z" fill="none"/>
<path d="M95.000,33.050 L92.171,35.880" fill="none"/>
<path d="M95.000,26.448 L95.000,19.847" fill="none"/>
<path d="M95.000,19.847 L95.000,17.017 L92.171,17.017 L92.171,19.847 Z" fill="none"/>
<path d="M95.000,19.847 L92.171,17.017" fill="none"/>
<path d="M116.692,24.374 L116.627,24.782 L116.439,25.150 L116.147,25.442 L115.779,25.629 L115.371,25.694 L114.963,25.629 L114.595,25.442 L114.303,25.150 L114.115,24.782 L114.051,24.374 L114.115,23.966 L114.303,23.597 L114.595,23.305 L114.963,23.118 L115.371,23.053 L115.779,23.118 L116.147,23.305 L116.439,23.597 L116.627,23.966 Z" fill="none"/>
<path d="M115.371,25.694 L115.371,32.484" fill="none"/>
<path d="M113.108,38.709 L115.371,32.484 L117.635,38.709" fill="none"/>
<path d="M115.371,26.448 L115.371,33.050" fill="none"/>
<path d="M115.371,33.050 L115.371,35.880 L112.542,35.880 L112.542,33.050 Z" fill="none"/>
<path d="M115.371,33.050 L112.542,35.880" fill="none"/>
<path d="M115.371,26.448 L120.039,21.780" fill="none"/>
<path d="M120.039,21.780 L122.040,19.780 L120.039,17.779 L118.039,19.780 Z" fill="none"/>
<path d="M120.039,21.780 L120.039,17.779" fill="none"/>
<path d="M137.063,24.374 L136.998,24.782 L136.811,25.150 L136.519,25.442 L136.150,25.629 L135.742,25.694 L135.334,25.629 L134.966,25.442 L134.674,25.150 L134.487,24.782 L134.422,24.374 L134.487,23.966 L134.674,23.597 L134.966,23.305 L135.334,23.118 L135.742,23.053 L136.150,23.118 L136.519,23.305 L136.811,23.597 L136.998,23.966 Z" fill="none"/>
<path d="M135.742,25.694 L135.742,32.484" fill="none"/>
<path d="M133.479,38.709 L135.742,32.484 L138.006,38.709" fill="none"/>
<path d="M135.742,26.448 L135.742,33.050" fill="none"/>
<path d="M135.742,33.050 L135.742,35.880 L132.913,35.880 L132.913,33.050 Z" fill="none"/>
<path d="M135.742,33.050 L132.913,35.880" fill="none"/>
<path d="M135.742,26.448 L142.344,26.448" fill="none"/>
<path d="M142.344,26.448 L145.174,26.448 L145.174,23.619 L142.344,23.619 Z" fill="none"/>
<path d="M142.344,26.448 L145.174,23.619" fill="none"/>
<path d="M157.434,24.374 L157.369,24.782 L157.182,25.150 L156.890,25.442 L156.522,25.629 L156.114,25.694 L155.706,25.629 L155.338,25.442 L155.045,25.150 L154.858,24.782 L154.793,24.374 L154.858,23.966 L155.045,23.597 L155.338,23.305 L155.706,23.118 L156.114,23.053 L156.522,23.118 L156.890,23.305 L157.182,23.597 L157.369,23.966 Z" fill="none"/>
<path d="M156.114,25.694 L156.114,32.484" fill="none"/>
<path d="M153.850,38.709 L156.114,32.484 L158.377,38.709" fill="none"/>
<path d="M156.114,26.448 L156.114,33.050" fill="none"/>
<path d="M156.114,33.050 L156.114,35.880 L153.284,35.880 L153.284,33.050 Z" fill="none"/>
<path d="M156.114,33.050 L153.284,35.880" fill="none"/>
<path d="M156.114,26.448 L160.782,31.117" fill="none"/>
<path d="M160.782,31.117 L162.783,33.117 L164.783,31.117 L162.783,29.116 Z" fill="none"/>
<path d="M160.782,31.117 L164.783,31.117" fill="none"/>
<path d="M35.207,58.326 L35.142,58.734 L34.955,59.102 L34.662,59.394 L34.294,59.581 L33.886,59.646 L33.478,59.581 L33.110,59.394 L32.818,59.102 L32.631,58.734 L32.566,58.326 L32.631,57.918 L32.818,57.550 L33.110,57.257 L33.478,57.070 L33.886,57.005 L34.294,57.070 L34.662,57.257 L34.955,57.550 L35.142,57.918 Z" fill="none"/>
<path d="M33.886,59.646 L33.886,66.436" fill="none"/>
<path d="M31.623,72.661 L33.886,66.436 L36.150,72.661" fill="none"/>
<path d="M33.886,60.400 L29.218,65.069" fill="none"/>
<path d="M29.218,65.069 L27.217,67.069 L25.217,65.069 L27.217,63.068 Z" fill="none"/>
<path d="M29.218,65.069 L25.217,65.069" fill="none"/>
<path d="M33.886,60.400 L27.285,60.400" fill="none"/>
<path d="M27.285,60.400 L24.455,60.400 L24.455,57.571 L27.285,57.571 Z" fill="none"/>
<path d="M27.285,60.400 L24.455,57.571" fill="none"/>
<path d="M55.578,58.326 L55.513,58.734 L55.326,59.102 L55.034,59.394 L54.666,59.581 L54.258,59.646 L53.850,59.581 L53.481,59.394 L53.189,59.102 L53.002,58.734 L52.937,58.326 L53.002,57.918 L53.189,57.550 L53.481,57.257 L53.850,57.070 L54.258,57.005 L54.666,57.070 L55.034,57.257 L55.326,57.550 L55.513,57.918 Z" fill="none"/>
<path d="M54.258,59.646 L54.258,66.436" fill="none"/>
<path d="M51.994,72.661 L54.258,66.436 L56.521,72.661" fill="none"/>
<path d="M54.258,60.400 L49.589,65.069" fill="none"/>
<path d="M49.589,65.069 L47.589,67.069 L45.588,65.069 L47.589,63.068 Z" fill="none"/>
<path d="M49.589,65.069 L45.588,65.069" fill="none"/>
<path d="M54.258,60.400 L49.589,55.732" fill="none"/>
<path d="M49.589,55.732 L47.589,53.732 L49.589,51.731 L51.590,53.732 Z" fill="none"/>
<path d="M49.589,55.732 L49.589,51.731" fill="none"/>
<path d="M75.949,58.326 L75.885,58.734 L75.697,59.102 L75.405,59.394 L75.037,59.581 L74.629,59.646 L74.221,59.581 L73.853,59.394 L73.561,59.102 L73.373,58.734 L73.308,58.326 L73.373,57.918 L73.561,57.550 L73.853,57.257 L74.221,57.070 L74.629,57.005 L75.037,57.070 L75.405,57.257 L75.697,57.550 L75.885,57.918 Z" fill="none"/>
<path d="M74.629,59.646 L74.629,66.436" fill="none"/>
<path d="M72.365,72.661 L74.629,66.436 L76.892,72.661" fill="none"/>
<path d="M74.629,60.400 L74.629,53.799" fill="none"/>
<path d="M74.629,53.799 L74.629,50.969 L71.799,50.969 L71.799,53.799 Z" fill="none"/>
<path d="M74.629,53.799 L71.799,50.969" fill="none"/>
<path d="M74.629,60.400 L81.231,60.400" fill="none"/>
<path d="M81.231,60.400 L84.060,60.400 L84.060,57.571 L81.231,57.571 Z" fill="none"/>
<path d="M81.231,60.400 L84.060,57.571" fill="none"/>
<path d="M96.320,58.326 L96.256,58.734 L96.068,59.102 L95.776,59.394 L95.408,59.581 L95.000,59.646 L94.592,59.581 L94.224,59.394 L93.932,59.102 L93.744,58.734 L93.680,58.326 L93.744,57.918 L93.932,57.550 L94.224,57.257 L94.592,57.070 L95.000,57.005 L95.408,57.070 L95.776,57.257 L96.068,57.550 L96.256,57.918 Z" fill="none"/>
<path d="M95.000,59.646 L95.000,66.436" fill="none"/>
<path d="M92.737,72.661 L95.000,66.436 L97.263,72.661" fill="none"/>
<path d="M95.000,60.400 L90.332,65.069" fill="none"/>
<path d="M90.332,65.069 L88.331,67.069 L86.331,65.069 L88.331,63.068 Z" fill="none"/>
<path d="M90.332,65.069 L86.331,65.069" fill="none"/>
<path d="M95.000,60.400 L95.000,53.799" fill="none"/>
<path d="M95.000,53.799 L95.000,50.969 L92.171,50.969 L92.171,53.799 Z" fill="none"/>
<path d="M95.000,53.799 L92.171,50.969" fill="none"/>
<path d="M116.692,58.326 L116.627,58.734 L116.439,59.102 L116.147,59.394 L115.779,59.581 L115.371,59.646 L114.963,59.581 L114.595,59.394 L114.303,59.102 L114.115,58.734 L114.051,58.326 L114.115,57.918 L114.303,57.550 L114.595,57.257 L114.963,57.070 L115.371,57.005 L115.779,57.070 L116.147,57.257 L116.439,57.550 L116.627,57.918 Z" fill="none"/>
<path d="M115.371,59.646 L115.371,66.436" fill="none"/>
<path d="M113.108,72.661 L115.371,66.436 L117.635,72.661" fill="none"/>
<path d="M115.371,60.400 L110.703,65.069" fill="none"/>
<path d="M110.703,65.069 L108.702,67.069 L106.702,65.069 L108.702,63.068 Z" fill="none"/>
<path d="M110.703,65.069 L106.702,65.069" fill="none"/>
<path d="M115.371,60.400 L120.039,55.732" fill="none"/>
<path d="M120.039,55.732 L122.040,53.732 L120.039,51.731 L118.039,53.732 Z" fill="none"/>
<path d="M120.039,55.732 L120.039,51.731" fill="none"/>
<path d="M137.063,58.326 L136.998,58.734 L136.811,59.102 L136.519,59.394 L136.150,59.581 L135.742,59.646 L135.334,59.581 L134.966,59.394 L134.674,59.102 L134.487,58.734 L134.422,58.326 L134.487,57.918 L134.674,57.550 L134.966,57.257 L135.334,57.070 L135.742,57.005 L136.150,57.070 L136.519,57.257 L136.811,57.550 L136.998,57.918 Z" fill="none"/>
<path d="M135.742,59.646 L135.742,66.436" fill="none"/>
<path d="M133.479,72.661 L135.742,66.436 L138.006,72.661" fill="none"/>
<path d="M135.742,60.400 L131.074,65.069" fill="none"/>
<path d="M131.074,65.069 L129.074,67.069 L127.073,65.069 L129.074,63.068 Z" fill="none"/>
<path d="M131.074,65.069 L127.073,65.069" fill="none"/>
<path d="M135.742,60.400 L142.344,60.400" fill="none"/>
<path d="M142.344,60.400 L145.174,60.400 L145.174,57.571 L142.344,57.571 Z" fill="none"/>
<path d="M142.344,60.400 L145.174,57.571" fill="none"/>
<path d="M157.434,58.326 L157.369,58.734 L157.182,59.102 L156.890,59.394 L156.522,59.581 L156.114,59.646 L155.706,59.581 L155.338,59.394 L155.045,59.102 L154.858,58.734 L154.793,58.326 L154.858,57.918 L155.045,57.550 L155.338,57.257 L155.706,57.070 L156.114,57.005 L156.522,57.070 L156.890,57.257 L157.182,57.550 L157.369,57.918 Z" fill="none"/>
<path d="M156.114,59.646 L156.114,66.436" fill="none"/>
<path d="M153.850,72.661 L156.114,66.436 L158.377,72.661" fill="none"/>
<path d="M156.114,60.400 L151.446,65.069" fill="none"/>
<path d="M151.446,65.069 L149.445,67.069 L147.444,65.069 L149.445,63.068 Z" fill="none"/>
<path d="M151.446,65.069 L147.444,65.069" fill="none"/>
<path d="M156.114,60.400 L160.782,65.069" fill="none"/>
<path d="M160.782,65.069 L162.783,67.069 L164.783,65.069 L162.783,63.068 Z" fill="none"/>
<path d="M160.782,65.069 L164.783,65.069" fill="none"/>
<path d="M35.207,92.278 L35.142,92.686 L34.955,93.054 L34.662,93.346 L34.294,93.533 L33.886,93.598 L33.478,93.533 L33.110,93.346 L32.818,93.054 L32.631,92.686 L32.566,92.278 L32.631,91.870 L32.818,91.502 L33.110,91.209 L33.478,91.022 L33.886,90.957 L34.294,91.022 L34.662,91.209 L34.955,91.502 L35.142,91.870 Z" fill="none"/>
<path d="M33.886,93.598 L33.886,100.388" fill="none"/>
<path d="M31.623,106.613 L33.886,100.388 L36.150,106.613" fill="none"/>
<path d="M33.886,94.353 L27.285,94.353" fill="none"/>
<path d="M27.285,94.353 L24.455,94.353 L24.455,91.523 L27.285,91.523 Z" fill="none"/>
<path d="M27.285,94.353 L24.455,91.523" fill="none"/>
<path d="M33.886,94.353 L29.218,89.684" fill="none"/>
<path d="M29.218,89.684 L27.217,87.684 L29.218,85.683 L31.219,87.684 Z" fill="none"/>
<path d="M29.218,89.684 L29.218,85.683" fill="none"/>
<path d="M55.578,92.278 L55.513,92.686 L55.326,93.054 L55.034,93.346 L54.666,93.533 L54.258,93.598 L53.850,93.533 L53.481,93.346 L53.189,93.054 L53.002,92.686 L52.937,92.278 L53.002,91.870 L53.189,91.502 L53.481,91.209 L53.850,91.022 L54.258,90.957 L54.666,91.022 L55.034,91.209 L55.326,91.502 L55.513,91.870 Z" fill="none"/>
<path d="M54.258,93.598 L54.258,100.388" fill="none"/>
<path d="M51.994,106.613 L54.258,100.388 L56.521,106.613" fill="none"/>
<path d="M54.258,94.353 L47.656,94.353" fill="none"/>
<path d="M47.656,94.353 L44.826,94.353 L44.826,91.523 L47.656,91.523 Z" fill="none"/>
<path d="M47.656,94.353 L44.826,91.523" fill="none"/>
<path d="M54.258,94.353 L54.258,87.751" fill="none"/>
<path d="M54.258,87.751 L54.258,84.921 L51.428,84.921 L51.428,87.751 Z" fill="none"/>
<path d="M54.258,87.751 L51.428,84.921" fill="none"/>
<path d="M75.949,92.278 L75.885,92.686 L75.697,93.054 L75.405,93.346 L75.037,93.533 L74.629,93.598 L74.221,93.533 L73.853,93.346 L73.561,93.054 L73.373,92.686 L73.308,92.278 L73.373,91.870 L73.561,91.502 L73.853,91.209 L74.221,91.022 L74.629,90.957 L75.037,91.022 L75.405,91.209 L75.697,91.502 L75.885,91.870 Z" fill="none"/>
<path d="M74.629,93.598 L74.629,100.388" fill="none"/>
<path d="M72.365,106.613 L74.629,100.388 L76.892,106.613" fill="none"/>
<path d="M74.629,94.353 L68.027,94.353" fill="none"/>
<path d="M68.027,94.353 L65.198,94.353 L65.198,91.523 L68.027,91.523 Z" fill="none"/>
<path d="M68.027,94.353 L65.198,91.523" fill="none"/>
<path d="M74.629,94.353 L79.297,89.684" fill="none"/>
<path d="M79.297,89.684 L81.298,87.684 L79.297,85.683 L77.296,87.684 Z" fill="none"/>
<path d="M79.297,89.684 L79.297,85.683" fill="none"/>
<path d="M96.320,92.278 L96.256,92.686 L96.068,93.054 L95.776,93.346 L95.408,93.533 L95.000,93.598 L94.592,93.533 L94.224,93.346 L93.932,93.054 L93.744,92.686 L93.680,92.278 L93.744,91.870 L93.932,91.502 L94.224,91.209 L94.592,91.022 L95.000,90.957 L95.408,91.022 L95.776,91.209 L96.068,91.502 L96.256,91.870 Z" fill="none"/>
<path d="M95.000,93.598 L95.000,100.388" fill="none"/>
<path d="M92.737,106.613 L95.000,100.388 L97.263,106.613" fill="none"/>
<path d="M95.000,94.353 L88.398,94.353" fill="none"/>
<path d="M88.398,94.353 L85.569,94.353 L85.569,91.523 L88.398,91.523 Z" fill="none"/>
<path d="M88.398,94.353 L85.569,91.523" fill="none"/>
<path d="M95.000,94.353 L101.602,94.353" fill="none"/>
<path d="M101.602,94.353 L104.431,94.353 L104.431,91.523 L101.602,91.523 Z" fill="none"/>
<path d="M101.602,94.353 L104.431,91.523" fill="none"/>
<path d="M116.692,92.278 L116.627,92.686 L116.439,93.054 L116.147,93.346 L115.779,93.533 L115.371,93.598 L114.963,93.533 L114.595,93.346 L114.303,93.054 L114.115,92.686 L114.051,92.278 L114.115,91.870 L114.303,91.502 L114.595,91.209 L114.963,91.022 L115.371,90.957 L115.779,91.022 L116.147,91.209 L116.439,91.502 L116.627,91.870 Z" fill="none"/>
<path d="M115.371,93.598 L115.371,100.388" fill="none"/>
<path d="M113.108,106.613 L115.371,100.388 L117.635,106.613" fill="none"/>
<path d="M115.371,94.353 L108.769,94.353" fill="none"/>
<path d="M108.769,94.353 L105.940,94.353 L105.940,91.523 L108.769,91.523 Z" fill="none"/>
<path d="M108.769,94.353 L105.940,91.523" fill="none"/>
<path d="M115.371,94.353 L120.039,99.021" fill="none"/>
<path d="M120.039,99.021 L122.040,101.021 L124.041,99.021 L122.040,97.020 Z" fill="none"/>
<path d="M120.039,99.021 L124.041,99.021" fill="none"/>
<path d="M137.063,92.278 L136.998,92.686 L136.811,93.054 L136.519,93.346 L136.150,93.533 L135.742,93.598 L135.334,93.533 L134.966,93.346 L134.674,93.054 L134.487,92.686 L134.422,92.278 L134.487,91.870 L134.674,91.502 L134.966,91.209 L135.334,91.022 L135.742,90.957 L136.150,91.022 L136.519,91.209 L136.811,91.502 L136.998,91.870 Z" fill="none"/>
<path d="M135.742,93.598 L135.742,100.388" fill="none"/>
<path d="M133.479,106.613 L135.742,100.388 L138.006,106.613" fill="none"/>
<path d="M135.742,94.353 L131.074,89.684" fill="none"/>
<path d="M131.074,89.684 L129.074,87.684 L131.074,85.683 L133.075,87.684 Z" fill="none"/>
<path d="M131.074,89.684 L131.074,85.683" fill="none"/>
<path d="M135.742,94.353 L135.742,87.751" fill="none"/>
<path d="M135.742,87.751 L135.742,84.921 L132.913,84.921 L132.913,87.751 Z" fill="none"/>
<path d="M135.742,87.751 L132.913,84.921" fill="none"/>
<path d="M157.434,92.278 L157.369,92.686 L157.182,93.054 L156.890,93.346 L156.522,93.533 L156.114,93.598 L155.706,93.533 L155.338,93.346 L155.045,93.054 L154.858,92.686 L154.793,92.278 L154.858,91.870 L155.045,91.502 L155.338,91.209 L155.706,91.022 L156.114,90.957 L156.522,91.022 L156.890,91.209 L157.182,91.502 L157.369,91.870 Z" fill="none"/>
<path d="M156.114,93.598 L156.114,100.388" fill="none"/>
<path d="M153.850,106.613 L156.114,100.388 L158.377,106.613" fill="none"/>
<path d="M156.114,94.353 L151.446,89.684" fill="none"/>
<path d="M151.446,89.684 L149.445,87.684 L151.446,85.683 L153.446,87.684 Z" fill="none"/>
<path d="M151.446,89.684 L151.446,85.683" fill="none"/>
<path d="M156.114,94.353 L160.782,89.684" fill="none"/>
<path d="M160.782,89.684 L162.783,87.684 L160.782,85.683 L158.781,87.684 Z" fill="none"/>
<path d="M160.782,89.684 L160.782,85.683" fill="none"/>
<path d="M55.578,126.230 L55.513,126.638 L55.326,127.006 L55.034,127.298 L54.666,127.485 L54.258,127.550 L53.850,127.485 L53.481,127.298 L53.189,127.006 L53.002,126.638 L52.937,126.230 L53.002,125.822 L53.189,125.454 L53.481,125.162 L53.850,124.974 L54.258,124.909 L54.666,124.974 L55.034,125.162 L55.326,125.454 L55.513,125.822 Z" fill="none"/>
<path d="M54.258,127.550 L54.258,134.340" fill="none"/>
<path d="M51.994,140.565 L54.258,134.340 L56.521,140.565" fill="none"/>
<path d="M54.258,128.305 L54.258,121.703" fill="none"/>
<path d="M54.258,121.703 L54.258,118.873 L51.428,118.873 L51.428,121.703 Z" fill="none"/>
<path d="M54.258,121.703 L51.428,118.873" fill="none"/>
<path d="M54.258,128.305 L58.926,132.973" fill="none"/>
<path d="M58.926,132.973 L60.926,134.973 L62.927,132.973 L60.926,130.972 Z" fill="none"/>
<path d="M58.926,132.973 L62.927,132.973" fill="none"/>
<path d="M75.949,126.230 L75.885,126.638 L75.697,127.006 L75.405,127.298 L75.037,127.485 L74.629,127.550 L74.221,127.485 L73.853,127.298 L73.561,127.006 L73.373,126.638 L73.308,126.230 L73.373,125.822 L73.561,125.454 L73.853,125.162 L74.221,124.974 L74.629,124.909 L75.037,124.974 L75.405,125.162 L75.697,125.454 L75.885,125.822 Z" fill="none"/>
<path d="M74.629,127.550 L74.629,134.340" fill="none"/>
<path d="M72.365,140.565 L74.629,134.340 L76.892,140.565" fill="none"/>
<path d="M74.629,128.305 L79.297,123.636" fill="none"/>
<path d="M79.297,123.636 L81.298,121.636 L79.297,119.635 L77.296,121.636 Z" fill="none"/>
<path d="M79.297,123.636 L79.297,119.635" fill="none"/>
<path d="M74.629,128.305 L81.231,128.305" fill="none"/>
<path d="M81.231,128.305 L84.060,128.305 L84.060,125.475 L81.231,125.475 Z" fill="none"/>
<path d="M81.231,128.305 L84.060,125.475" fill="none"/>
<path d="M96.320,126.230 L96.256,126.638 L96.068,127.006 L95.776,127.298 L95.408,127.485 L95.000,127.550 L94.592,127.485 L94.224,127.298 L93.932,127.006 L93.744,126.638 L93.680,126.230 L93.744,125.822 L93.932,125.454 L94.224,125.162 L94.592,124.974 L95.000,124.909 L95.408,124.974 L95.776,125.162 L96.068,125.454 L96.256,125.822 Z" fill="none"/>
<path d="M95.000,127.550 L95.000,134.340" fill="none"/>
<path d="M92.737,140.565 L95.000,134.340 L97.263,140.565" fill="none"/>
<path d="M95.000,128.305 L99.668,123.636" fill="none"/>
<path d="M99.668,123.636 L101.669,121.636 L99.668,119.635 L97.668,121.636 Z" fill="none"/>
<path d="M99.668,123.636 L99.668,119.635" fill="none"/>
<path d="M95.000,128.305 L99.668,132.973" fill="none"/>
<path d="M99.668,132.973 L101.669,134.973 L103.669,132.973 L101.669,130.972 Z" fill="none"/>
<path d="M99.668,132.973 L103.669,132.973" fill="none"/>
<path d="M116.692,126.230 L116.627,126.638 L116.439,127.006 L116.147,127.298 L115.779,127.485 L115.371,127.550 L114.963,127.485 L114.595,127.298 L114.303,127.006 L114.115,126.638 L114.051,126.230 L114.115,125.822 L114.303,125.454 L114.595,125.162 L114.963,124.974 L115.371,124.909 L115.779,124.974 L116.147,125.162 L116.439,125.454 L116.627,125.822 Z" fill="none"/>
<path d="M115.371,127.550 L115.371,134.340" fill="none"/>
<path d="M113.108,140.565 L115.371,134.340 L117.635,140.565" fill="none"/>
<path d="M115.371,128.305 L110.703,123.636" fill="none"/>
<path d="M110.703,123.636 L108.702,121.636 L110.703,119.635 L112.704,121.636 Z" fill="none"/>
<path d="M110.703,123.636 L110.703,119.635" fill="none"/>
<path d="M115.371,128.305 L121.973,128.305" fill="none"/>
<path d="M121.973,128.305 L124.802,128.305 L124.802,125.475 L121.973,125.475 Z" fill="none"/>
<path d="M121.973,128.305 L124.802,125.475" fill="none"/>
<path d="M137.063,126.230 L136.998,126.638 L136.811,127.006 L136.519,127.298 L136.150,127.485 L135.742,127.550 L135.334,127.485 L134.966,127.298 L134.674,127.006 L134.487,126.638 L134.422,126.230 L134.487,125.822 L134.674,125.454 L134.966,125.162 L135.334,124.974 L135.742,124.909 L136.150,124.974 L136.519,125.162 L136.811,125.454 L136.998,125.822 Z" fill="none"/>
<path d="M135.742,127.550 L135.742,134.340" fill="none"/>
<path d="M133.479,140.565 L135.742,134.340 L138.006,140.565" fill="none"/>
<path d="M135.742,128.305 L142.344,128.305" fill="none"/>
<path d="M142.344,128.305 L145.174,128.305 L145.174,125.475 L142.344,125.475 Z" fill="none"/>
<path d="M142.344,128.305 L145.174,125.475" fill="none"/>
<path d="M135.742,128.305 L140.411,132.973" fill="none"/>
<path d="M140.411,132.973 L142.411,134.973 L144.412,132.973 L142.411,130.972 Z" fill="none"/>
<path d="M140.411,132.973 L144.412,132.973" fill="none"/>
<path d="M45.392,160.182 L45.328,160.590 L45.140,160.958 L44.848,161.250 L44.480,161.438 L44.072,161.502 L43.664,161.438 L43.296,161.250 L43.004,160.958 L42.816,160.590 L42.752,160.182 L42.816,159.774 L43.004,159.406 L43.296,159.114 L43.664,158.926 L44.072,158.861 L44.480,158.926 L44.848,159.114 L45.140,159.406 L45.328,159.774 Z" fill="none"/>
<path d="M44.072,161.502 L44.072,168.293" fill="none"/>
<path d="M41.808,174.517 L44.072,168.293 L46.335,174.517" fill="none"/>
<path d="M44.072,162.257 L44.072,155.655" fill="none"/>
<path d="M44.072,155.655 L44.072,152.825 L41.243,152.825 L41.243,155.655 Z" fill="none"/>
<path d="M44.072,155.655 L41.243,152.825" fill="none"/>
<path d="M44.072,162.257 L48.740,157.588" fill="none"/>
<path d="M48.740,157.588 L50.741,155.588 L48.740,153.587 L46.739,155.588 Z" fill="none"/>
<path d="M48.740,157.588 L48.740,153.587" fill="none"/>
<path d="M65.764,160.182 L65.699,160.590 L65.511,160.958 L65.219,161.250 L64.851,161.438 L64.443,161.502 L64.035,161.438 L63.667,161.250 L63.375,160.958 L63.187,160.590 L63.123,160.182 L63.187,159.774 L63.375,159.406 L63.667,159.114 L64.035,158.926 L64.443,158.861 L64.851,158.926 L65.219,159.114 L65.511,159.406 L65.699,159.774 Z" fill="none"/>
<path d="M64.443,161.502 L64.443,168.293" fill="none"/>
<path d="M62.180,174.517 L64.443,168.293 L66.707,174.517" fill="none"/>
<path d="M64.443,162.257 L64.443,168.858" fill="none"/>
<path d="M64.443,168.858 L64.443,171.688 L61.614,171.688 L61.614,168.858 Z" fill="none"/>
<path d="M64.443,168.858 L61.614,171.688" fill="none"/>
<path d="M64.443,162.257 L59.775,166.925" fill="none"/>
<path d="M59.775,166.925 L57.774,168.925 L55.774,166.925 L57.774,164.924 Z" fill="none"/>
<path d="M59.775,166.925 L55.774,166.925" fill="none"/>
<path d="M86.135,160.182 L86.070,160.590 L85.883,160.958 L85.590,161.250 L85.222,161.438 L84.814,161.502 L84.406,161.438 L84.038,161.250 L83.746,160.958 L83.559,160.590 L83.494,160.182 L83.559,159.774 L83.746,159.406 L84.038,159.114 L84.406,158.926 L84.814,158.861 L85.222,158.926 L85.590,159.114 L85.883,159.406 L86.070,159.774 Z" fill="none"/>
<path d="M84.814,161.502 L84.814,168.293" fill="none"/>
<path d="M82.551,174.517 L84.814,168.293 L87.078,174.517" fill="none"/>
<path d="M84.814,162.257 L84.814,168.858" fill="none"/>
<path d="M84.814,168.858 L84.814,171.688 L81.985,171.688 L81.985,168.858 Z" fill="none"/>
<path d="M84.814,168.858 L81.985,171.688" fill="none"/>
<path d="M84.814,162.257 L78.213,162.257" fill="none"/>
<path d="M78.213,162.257 L75.383,162.257 L75.383,159.427 L78.213,159.427 Z" fill="none"/>
<path d="M78.213,162.257 L75.383,159.427" fill="none"/>
<path d="M106.506,160.182 L106.441,160.590 L106.254,160.958 L105.962,161.250 L105.594,161.438 L105.186,161.502 L104.778,161.438 L104.410,161.250 L104.117,160.958 L103.930,160.590 L103.865,160.182 L103.930,159.774 L104.117,159.406 L104.410,159.114 L104.778,158.926 L105.186,158.861 L105.594,158.926 L105.962,159.114 L106.254,159.406 L106.441,159.774 Z" fill="none"/>
<path d="M105.186,161.502 L105.186,168.293" fill="none"/>
<path d="M102.922,174.517 L105.186,168.293 L107.449,174.517" fill="none"/>
<path d="M105.186,162.257 L105.186,168.858" fill="none"/>
<path d="M105.186,168.858 L105.186,171.688 L102.356,171.688 L102.356,168.858 Z" fill="none"/>
<path d="M105.186,168.858 L102.356,171.688" fill="none"/>
<path d="M105.186,162.257 L100.517,157.588" fill="none"/>
<path d="M100.517,157.588 L98.517,155.588 L100.517,153.587 L102.518,155.588 Z" fill="none"/>
<path d="M100.517,157.588 L100.517,153.587" fill="none"/>
<path d="M126.877,160.182 L126.813,160.590 L126.625,160.958 L126.333,161.250 L125.965,161.438 L125.557,161.502 L125.149,161.438 L124.781,161.250 L124.489,160.958 L124.301,160.590 L124.236,160.182 L124.301,159.774 L124.489,159.406 L124.781,159.114 L125.149,158.926 L125.557,158.861 L125.965,158.926 L126.333,159.114 L126.625,159.406 L126.813,159.774 Z" fill="none"/>
<path d="M125.557,161.502 L125.557,168.293" fill="none"/>
<path d="M123.293,174.517 L125.557,168.293 L127.820,174.517" fill="none"/>
<path d="M125.557,162.257 L125.557,168.858" fill="none"/>
<path d="M125.557,168.858 L125.557,171.688 L122.728,171.688 L122.728,168.858 Z" fill="none"/>
<path d="M125.557,168.858 L122.728,171.688" fill="none"/>
<path d="M125.557,162.257 L125.557,155.655" fill="none"/>
<path d="M125.557,155.655 L125.557,152.825 L122.728,152.825 L122.728,155.655 Z" fill="none"/>
<path d="M125.557,155.655 L122.728,152.825" fill="none"/>
<path d="M147.248,160.182 L147.184,160.590 L146.996,160.958 L146.704,161.250 L146.336,161.438 L145.928,161.502 L145.520,161.438 L145.152,161.250 L144.860,160.958 L144.672,160.590 L144.608,160.182 L144.672,159.774 L144.860,159.406 L145.152,159.114 L145.520,158.926 L145.928,158.861 L146.336,158.926 L146.704,159.114 L146.996,159.406 L147.184,159.774 Z" fill="none"/>
<path d="M145.928,161.502 L145.928,168.293" fill="none"/>
<path d="M143.665,174.517 L145.928,168.293 L148.192,174.517" fill="none"/>
<path d="M145.928,162.257 L145.928,168.858" fill="none"/>
<path d="M145.928,168.858 L145.928,171.688 L143.099,171.688 L143.099,168.858 Z" fill="none"/>
<path d="M145.928,168.858 L143.099,171.688" fill="none"/>
<path d="M145.928,162.257 L150.596,157.588" fill="none"/>
<path d="M150.596,157.588 L152.597,155.588 L150.596,153.587 L148.596,155.588 Z" fill="none"/>
<path d="M150.596,157.588 L150.596,153.587" fill="none"/>
<path d="M45.392,194.134 L45.328,194.542 L45.140,194.910 L44.848,195.202 L44.480,195.390 L44.072,195.454 L43.664,195.390 L43.296,195.202 L43.004,194.910 L42.816,194.542 L42.752,194.134 L42.816,193.726 L43.004,193.358 L43.296,193.066 L43.664,192.878 L44.072,192.813 L44.480,192.878 L44.848,193.066 L45.140,193.358 L45.328,193.726 Z" fill="none"/>
<path d="M44.072,195.454 L44.072,202.245" fill="none"/>
<path d="M41.808,208.469 L44.072,202.245 L46.335,208.469" fill="none"/>
<path d="M44.072,196.209 L44.072,189.607" fill="none"/>
<path d="M44.072,189.607 L44.072,186.778 L41.243,186.778 L41.243,189.607 Z" fill="none"/>
<path d="M44.072,189.607 L41.243,186.778" fill="none"/>
<path d="M44.072,196.209 L48.740,191.541" fill="none"/>
<path d="M48.740,191.541 L50.741,189.540 L48.740,187.539 L46.739,189.540 Z" fill="none"/>
<path d="M48.740,191.541 L48.740,187.539" fill="none"/>
<path d="M65.764,194.134 L65.699,194.542 L65.511,194.910 L65.219,195.202 L64.851,195.390 L64.443,195.454 L64.035,195.390 L63.667,195.202 L63.375,194.910 L63.187,194.542 L63.123,194.134 L63.187,193.726 L63.375,193.358 L63.667,193.066 L64.035,192.878 L64.443,192.813 L64.851,192.878 L65.219,193.066 L65.511,193.358 L65.699,193.726 Z" fill="none"/>
<path d="M64.443,195.454 L64.443,202.245" fill="none"/>
<path d="M62.180,208.469 L64.443,202.245 L66.707,208.469" fill="none"/>
<path d="M64.443,196.209 L64.443,202.810" fill="none"/>
<path d="M64.443,202.810 L64.443,205.640 L61.614,205.640 L61.614,202.810 Z" fill="none"/>
<path d="M64.443,202.810 L61.614,205.640" fill="none"/>
<path d="M64.443,196.209 L71.045,196.209" fill="none"/>
<path d="M71.045,196.209 L73.874,196.209 L73.874,193.379 L71.045,193.379 Z" fill="none"/>
<path d="M71.045,196.209 L73.874,193.379" fill="none"/>
<path d="M86.135,194.134 L86.070,194.542 L85.883,194.910 L85.590,195.202 L85.222,195.390 L84.814,195.454 L84.406,195.390 L84.038,195.202 L83.746,194.910 L83.559,194.542 L83.494,194.134 L83.559,193.726 L83.746,193.358 L84.038,193.066 L84.406,192.878 L84.814,192.813 L85.222,192.878 L85.590,193.066 L85.883,193.358 L86.070,193.726 Z" fill="none"/>
<path d="M84.814,195.454 L84.814,202.245" fill="none"/>
<path d="M82.551,208.469 L84.814,202.245 L87.078,208.469" fill="none"/>
<path d="M84.814,196.209 L84.814,202.810" fill="none"/>
<path d="M84.814,202.810 L84.814,205.640 L81.985,205.640 L81.985,202.810 Z" fill="none"/>
<path d="M84.814,202.810 L81.985,205.640" fill="none"/>
<path d="M84.814,196.209 L89.483,200.877" fill="none"/>
<path d="M89.483,200.877 L91.483,202.877 L93.484,200.877 L91.483,198.876 Z" fill="none"/>
<path d="M89.483,200.877 L93.484,200.877" fill="none"/>
<path d="M106.506,194.134 L106.441,194.542 L106.254,194.910 L105.962,195.202 L105.594,195.390 L105.186,195.454 L104.778,195.390 L104.410,195.202 L104.117,194.910 L103.930,194.542 L103.865,194.134 L103.930,193.726 L104.117,193.358 L104.410,193.066 L104.778,192.878 L105.186,192.813 L105.594,192.878 L105.962,193.066 L106.254,193.358 L106.441,193.726 Z" fill="none"/>
<path d="M105.186,195.454 L105.186,202.245" fill="none"/>
<path d="M102.922,208.469 L105.186,202.245 L107.449,208.469" fill="none"/>
<path d="M105.186,196.209 L100.517,200.877" fill="none"/>
<path d="M100.517,200.877 L98.517,202.877 L96.516,200.877 L98.517,198.876 Z" fill="none"/>
<path d="M100.517,200.877 L96.516,200.877" fill="none"/>
<path d="M105.186,196.209 L98.584,196.209" fill="none"/>
<path d="M98.584,196.209 L95.754,196.209 L95.754,193.379 L98.584,193.379 Z" fill="none"/>
<path d="M98.584,196.209 L95.754,193.379" fill="none"/>
<path d="M126.877,194.134 L126.813,194.542 L126.625,194.910 L126.333,195.202 L125.965,195.390 L125.557,195.454 L125.149,195.390 L124.781,195.202 L124.489,194.910 L124.301,194.542 L124.236,194.134 L124.301,193.726 L124.489,193.358 L124.781,193.066 L125.149,192.878 L125.557,192.813 L125.965,192.878 L126.333,193.066 L126.625,193.358 L126.813,193.726 Z" fill="none"/>
<path d="M125.557,195.454 L125.557,202.245" fill="none"/>
<path d="M123.293,208.469 L125.557,202.245 L127.820,208.469" fill="none"/>
<path d="M125.557,196.209 L120.889,200.877" fill="none"/>
<path d="M120.889,200.877 L118.888,202.877 L116.887,200.877 L118.888,198.876 Z" fill="none"/>
<path d="M120.889,200.877 L116.887,200.877" fill="none"/>
<path d="M125.557,196.209 L120.889,191.541" fill="none"/>
<path d="M120.889,191.541 L118.888,189.540 L120.889,187.539 L122.889,189.540 Z" fill="none"/>
<path d="M120.889,191.541 L120.889,187.539" fill="none"/>
<path d="M147.248,194.134 L147.184,194.542 L146.996,194.910 L146.704,195.202 L146.336,195.390 L145.928,195.454 L145.520,195.390 L145.152,195.202 L144.860,194.910 L144.672,194.542 L144.608,194.134 L144.672,193.726 L144.860,193.358 L145.152,193.066 L145.520,192.878 L145.928,192.813 L146.336,192.878 L146.704,193.066 L146.996,193.358 L147.184,193.726 Z" fill="none"/>
<path d="M145.928,195.454 L145.928,202.245" fill="none"/>
<path d="M143.665,208.469 L145.928,202.245 L148.192,208.469" fill="none"/>
<path d="M145.928,196.209 L141.260,200.877" fill="none"/>
<path d="M141.260,200.877 L139.259,202.877 L137.259,200.877 L139.259,198.876 Z" fill="none"/>
<path d="M141.260,200.877 L137.259,200.877" fill="none"/>
<path d="M145.928,196.209 L145.928,189.607" fill="none"/>
<path d="M145.928,189.607 L145.928,186.778 L143.099,186.778 L143.099,189.607 Z" fill="none"/>
<path d="M145.928,189.607 L143.099,186.778" fill="none"/>
</g>
<g id="pen-hatch" stroke="#555555" stroke-width="0.3" stroke-linecap="round" stroke-linejoin="round">
<path d="M33.000,33.170 L33.000,33.767" fill="none"/>
<path d="M32.400,33.170 L32.400,34.367" fill="none"/>
<path d="M31.800,33.170 L31.800,34.967" fill="none"/>
<path d="M31.200,33.170 L31.200,35.567" fill="none"/>
<path d="M32.916,34.836 L32.858,34.978 L32.716,35.036 L32.575,34.978 L32.516,34.836 L32.575,34.695 L32.716,34.636 L32.858,34.695 Z" fill="none"/>
<path d="M28.200,30.268 L28.200,30.997" fill="none"/>
<path d="M27.600,29.668 L27.600,30.997" fill="none"/>
<path d="M27.000,29.503 L27.000,30.997" fill="none"/>
<path d="M26.400,30.103 L26.400,30.997" fill="none"/>
<path d="M27.256,31.517 L27.198,31.658 L27.056,31.717 L26.915,31.658 L26.856,31.517 L26.915,31.375 L27.056,31.317 L27.198,31.375 Z" fill="none"/>
<path d="M28.263,31.712 L28.204,31.854 L28.063,31.912 L27.921,31.854 L27.863,31.712 L27.921,31.571 L28.063,31.512 L28.204,31.571 Z" fill="none"/>
<path d="M53.400,33.170 L53.400,33.738" fill="none"/>
<path d="M52.800,33.170 L52.800,34.338" fill="none"/>
<path d="M52.200,33.170 L52.200,34.938" fill="none"/>
<path d="M51.600,33.170 L51.600,35.538" fill="none"/>
<path d="M53.383,35.091 L53.324,35.232 L53.183,35.291 L53.041,35.232 L52.983,35.091 L53.041,34.950 L53.183,34.891 L53.324,34.950 Z" fill="none"/>
<path d="M47.400,23.739 L47.400,26.023" fill="none"/>
<path d="M46.800,23.739 L46.800,25.423" fill="none"/>
<path d="M46.200,23.739 L46.200,24.823" fill="none"/>
<path d="M45.600,23.739 L45.600,24.223" fill="none"/>
<path d="M45.678,26.002 L45.619,26.143 L45.478,26.202 L45.336,26.143 L45.278,26.002 L45.336,25.860 L45.478,25.802 L45.619,25.860 Z" fill="none"/>
<path d="M73.800,33.170 L73.800,33.709" fill="none"/>
<path d="M73.200,33.170 L73.200,34.309" fill="none"/>
<path d="M72.600,33.170 L72.600,34.909" fill="none"/>
<path d="M72.000,33.170 L72.000,35.509" fill="none"/>
<path d="M73.915,35.031 L73.857,35.172 L73.715,35.231 L73.574,35.172 L73.515,35.031 L73.574,34.889 L73.715,34.831 L73.857,34.889 Z" fill="none"/>
<path d="M71.400,19.388 L71.400,20.171" fill="none"/>
<path d="M70.800,18.788 L70.800,20.771" fill="none"/>
<path d="M70.200,18.188 L70.200,21.371" fill="none"/>
<path d="M69.275,19.174 L69.217,19.315 L69.075,19.374 L68.934,19.315 L68.875,19.174 L68.934,19.032 L69.075,18.974 L69.217,19.032 Z" fill="none"/>
<path d="M69.109,20.212 L69.050,20.353 L68.909,20.412 L68.767,20.353 L68.709,20.212 L68.767,20.071 L68.909,20.012 L69.050,20.071 Z" fill="none"/>
<path d="M94.200,33.170 L94.200,33.681" fill="none"/>
<path d="M93.600,33.170 L93.600,34.281" fill="none"/>
<path d="M93.000,33.170 L93.000,34.881" fill="none"/>
<path d="M92.400,33.170 L92.400,35.481" fill="none"/>
<path d="M94.200,19.216 L94.200,19.727" fill="none"/>
<path d="M93.600,18.616 L93.600,19.727" fill="none"/>
<path d="M93.000,18.016 L93.000,19.727" fill="none"/>
<path d="M92.400,17.416 L92.400,19.727" fill="none"/>
<path d="M114.600,33.170 L114.600,33.652" fill="none"/>
<path d="M114.000,33.170 L114.000,34.252" fill="none"/>
<path d="M113.400,33.170 L113.400,34.852" fill="none"/>
<path d="M112.800,33.170 L112.800,35.452" fill="none"/>
<path d="M114.621,35.204 L114.562,35.345 L114.421,35.404 L114.279,35.345 L114.221,35.204 L114.279,35.062 L114.421,35.004 L114.562,35.062 Z" fill="none"/>
<path d="M119.400,18.588 L119.400,20.971" fill="none"/>
<path d="M118.800,19.188 L118.800,20.371" fill="none"/>
<path d="M121.136,20.317 L121.077,20.458 L120.936,20.517 L120.794,20.458 L120.736,20.317 L120.794,20.176 L120.936,20.117 L121.077,20.176 Z" fill="none"/>
<path d="M135.000,33.170 L135.000,33.623" fill="none"/>
<path d="M134.400,33.170 L134.400,34.223" fill="none"/>
<path d="M133.800,33.170 L133.800,34.823" fill="none"/>
<path d="M133.200,33.170 L133.200,35.423" fill="none"/>
<path d="M134.682,34.926 L134.624,35.067 L134.482,35.126 L134.341,35.067 L134.282,34.926 L134.341,34.785 L134.482,34.726 L134.624,34.785 Z" fill="none"/>
<path d="M144.000,23.739 L144.000,24.623" fill="none"/>
<path d="M143.400,23.739 L143.400,25.223" fill="none"/>
<path d="M142.800,23.739 L142.800,25.823" fill="none"/>
<path d="M144.842,25.100 L144.783,25.242 L144.642,25.300 L144.500,25.242 L144.442,25.100 L144.500,24.959 L144.642,24.900 L144.783,24.959 Z" fill="none"/>
<path d="M155.400,33.170 L155.400,33.594" fill="none"/>
<path d="M154.800,33.170 L154.800,34.194" fill="none"/>
<path d="M154.200,33.170 L154.200,34.794" fill="none"/>
<path d="M153.600,33.170 L153.600,35.394" fill="none"/>
<path d="M155.131,34.790 L155.073,34.932 L154.931,34.990 L154.790,34.932 L154.731,34.790 L154.790,34.649 L154.931,34.590 L155.073,34.649 Z" fill="none"/>
<path d="M163.800,30.303 L163.800,30.997" fill="none"/>
<path d="M163.200,29.703 L163.200,30.997" fill="none"/>
<path d="M162.600,29.468 L162.600,30.997" fill="none"/>
<path d="M162.000,30.068 L162.000,30.997" fill="none"/>
<path d="M161.400,30.668 L161.400,30.997" fill="none"/>
<path d="M162.994,31.748 L162.935,31.890 L162.794,31.948 L162.652,31.890 L162.594,31.748 L162.652,31.607 L162.794,31.548 L162.935,31.607 Z" fill="none"/>
<path d="M28.200,64.220 L28.200,64.949" fill="none"/>
<path d="M27.600,63.620 L27.600,64.949" fill="none"/>
<path d="M27.000,63.455 L27.000,64.949" fill="none"/>
<path d="M26.400,64.055 L26.400,64.949" fill="none"/>
<path d="M27.395,65.427 L27.336,65.568 L27.195,65.627 L27.054,65.568 L26.995,65.427 L27.054,65.285 L27.195,65.227 L27.336,65.285 Z" fill="none"/>
<path d="M27.000,57.691 L27.000,59.946" fill="none"/>
<path d="M26.400,57.691 L26.400,59.346" fill="none"/>
<path d="M25.800,57.691 L25.800,58.746" fill="none"/>
<path d="M25.200,57.691 L25.200,58.146" fill="none"/>
<path d="M48.600,64.249 L48.600,64.949" fill="none"/>
<path d="M48.000,63.649 L48.000,64.949" fill="none"/>
<path d="M47.400,63.426 L47.400,64.949" fill="none"/>
<path d="M46.800,64.026 L46.800,64.949" fill="none"/>
<path d="M46.200,64.626 L46.200,64.949" fill="none"/>
<path d="M47.555,65.469 L47.496,65.610 L47.355,65.669 L47.214,65.610 L47.155,65.469 L47.214,65.327 L47.355,65.269 L47.496,65.327 Z" fill="none"/>
<path d="M48.636,65.545 L48.577,65.686 L48.436,65.745 L48.295,65.686 L48.236,65.545 L48.295,65.403 L48.436,65.345 L48.577,65.403 Z" fill="none"/>
<path d="M51.000,53.311 L51.000,54.152" fill="none"/>
<path d="M50.400,52.711 L50.400,54.752" fill="none"/>
<path d="M49.800,52.111 L49.800,55.352" fill="none"/>
<path d="M73.800,53.140 L73.800,53.679" fill="none"/>
<path d="M73.200,52.540 L73.200,53.679" fill="none"/>
<path d="M72.600,51.940 L72.600,53.679" fill="none"/>
<path d="M72.000,51.340 L72.000,53.679" fill="none"/>
<path d="M73.725,52.019 L73.666,52.161 L73.525,52.219 L73.383,52.161 L73.325,52.019 L73.383,51.878 L73.525,51.819 L73.666,51.878 Z" fill="none"/>
<path d="M83.400,57.691 L83.400,58.061" fill="none"/>
<path d="M82.800,57.691 L82.800,58.661" fill="none"/>
<path d="M82.200,57.691 L82.200,59.261" fill="none"/>
<path d="M81.600,57.691 L81.600,59.861" fill="none"/>
<path d="M82.599,59.986 L82.540,60.128 L82.399,60.186 L82.258,60.128 L82.199,59.986 L82.258,59.845 L82.399,59.786 L82.540,59.845 Z" fill="none"/>
<path d="M89.400,64.307 L89.400,64.949" fill="none"/>
<path d="M88.800,63.707 L88.800,64.949" fill="none"/>
<path d="M88.200,63.369 L88.200,64.949" fill="none"/>
<path d="M87.600,63.969 L87.600,64.949" fill="none"/>
<path d="M87.000,64.569 L87.000,64.949" fill="none"/>
<path d="M88.199,65.802 L88.140,65.943 L87.999,66.002 L87.857,65.943 L87.799,65.802 L87.857,65.661 L87.999,65.602 L88.140,65.661 Z" fill="none"/>
<path d="M94.200,53.168 L94.200,53.679" fill="none"/>
<path d="M93.600,52.568 L93.600,53.679" fill="none"/>
<path d="M93.000,51.968 L93.000,53.679" fill="none"/>
<path d="M92.400,51.368 L92.400,53.679" fill="none"/>
<path d="M109.800,64.335 L109.800,64.949" fill="none"/>
<path d="M109.200,63.735 L109.200,64.949" fill="none"/>
<path d="M108.600,63.340 L108.600,64.949" fill="none"/>
<path d="M108.000,63.940 L108.000,64.949" fill="none"/>
<path d="M107.400,64.540 L107.400,64.949" fill="none"/>
<path d="M109.914,65.560 L109.856,65.701 L109.714,65.760 L109.573,65.701 L109.514,65.560 L109.573,65.418 L109.714,65.360 L109.856,65.418 Z" fill="none"/>
<path d="M119.400,52.540 L119.400,54.923" fill="none"/>
<path d="M118.800,53.140 L118.800,54.323" fill="none"/>
<path d="M130.200,64.364 L130.200,64.949" fill="none"/>
<path d="M129.600,63.764 L129.600,64.949" fill="none"/>
<path d="M129.000,63.311 L129.000,64.949" fill="none"/>
<path d="M128.400,63.911 L128.400,64.949" fill="none"/>
<path d="M127.800,64.511 L127.800,64.949" fill="none"/>
<path d="M130.008,65.576 L129.949,65.718 L129.808,65.776 L129.667,65.718 L129.608,65.576 L129.667,65.435 L129.808,65.376 L129.949,65.435 Z" fill="none"/>
<path d="M144.000,57.691 L144.000,58.575" fill="none"/>
<path d="M143.400,57.691 L143.400,59.175" fill="none"/>
<path d="M142.800,57.691 L142.800,59.775" fill="none"/>
<path d="M143.856,59.725 L143.798,59.866 L143.656,59.925 L143.515,59.866 L143.456,59.725 L143.515,59.584 L143.656,59.525 L143.798,59.584 Z" fill="none"/>
<path d="M144.831,58.916 L144.772,59.057 L144.631,59.116 L144.489,59.057 L144.431,58.916 L144.489,58.774 L144.631,58.716 L144.772,58.774 Z" fill="none"/>
<path d="M145.023,59.707 L144.965,59.849 L144.823,59.907 L144.682,59.849 L144.623,59.707 L144.682,59.566 L144.823,59.507 L144.965,59.566 Z" fill="none"/>
<path d="M150.600,64.393 L150.600,64.949" fill="none"/>
<path d="M150.000,63.793 L150.000,64.949" fill="none"/>
<path d="M149.400,63.283 L149.400,64.949" fill="none"/>
<path d="M148.800,63.883 L148.800,64.949" fill="none"/>
<path d="M148.200,64.483 L148.200,64.949" fill="none"/>
<path d="M149.604,65.848 L149.546,65.990 L149.404,66.048 L149.263,65.990 L149.204,65.848 L149.263,65.707 L149.404,65.648 L149.546,65.707 Z" fill="none"/>
<path d="M163.800,64.255 L163.800,64.949" fill="none"/>
<path d="M163.200,63.655 L163.200,64.949" fill="none"/>
<path d="M162.600,63.420 L162.600,64.949" fill="none"/>
<path d="M162.000,64.020 L162.000,64.949" fill="none"/>
<path d="M161.400,64.620 L161.400,64.949" fill="none"/>
<path d="M161.869,65.432 L161.810,65.573 L161.669,65.632 L161.527,65.573 L161.469,65.432 L161.527,65.290 L161.669,65.232 L161.810,65.290 Z" fill="none"/>
<path d="M163.240,65.633 L163.181,65.774 L163.040,65.833 L162.898,65.774 L162.840,65.633 L162.898,65.491 L163.040,65.433 L163.181,65.491 Z" fill="none"/>
<path d="M27.000,91.643 L27.000,93.898" fill="none"/>
<path d="M26.400,91.643 L26.400,93.298" fill="none"/>
<path d="M25.800,91.643 L25.800,92.698" fill="none"/>
<path d="M25.200,91.643 L25.200,92.098" fill="none"/>
<path d="M25.320,93.938 L25.262,94.080 L25.120,94.138 L24.979,94.080 L24.920,93.938 L24.979,93.797 L25.120,93.738 L25.262,93.797 Z" fill="none"/>
<path d="M26.013,93.609 L25.954,93.751 L25.813,93.809 L25.672,93.751 L25.613,93.609 L25.672,93.468 L25.813,93.409 L25.954,93.468 Z" fill="none"/>
<path d="M30.600,87.235 L30.600,88.133" fill="none"/>
<path d="M30.000,86.635 L30.000,88.733" fill="none"/>
<path d="M29.400,86.035 L29.400,89.333" fill="none"/>
<path d="M28.471,88.138 L28.412,88.279 L28.271,88.338 L28.130,88.279 L28.071,88.138 L28.130,87.996 L28.271,87.938 L28.412,87.996 Z" fill="none"/>
<path d="M47.400,91.643 L47.400,93.927" fill="none"/>
<path d="M46.800,91.643 L46.800,93.327" fill="none"/>
<path d="M46.200,91.643 L46.200,92.727" fill="none"/>
<path d="M45.600,91.643 L45.600,92.127" fill="none"/>
<path d="M46.826,93.849 L46.767,93.990 L46.626,94.049 L46.484,93.990 L46.426,93.849 L46.484,93.707 L46.626,93.649 L46.767,93.707 Z" fill="none"/>
<path d="M53.400,87.063 L53.400,87.631" fill="none"/>
<path d="M52.800,86.463 L52.800,87.631" fill="none"/>
<path d="M52.200,85.863 L52.200,87.631" fill="none"/>
<path d="M51.600,85.263 L51.600,87.631" fill="none"/>
<path d="M67.800,91.643 L67.800,93.956" fill="none"/>
<path d="M67.200,91.643 L67.200,93.356" fill="none"/>
<path d="M66.600,91.643 L66.600,92.756" fill="none"/>
<path d="M66.000,91.643 L66.000,92.156" fill="none"/>
<path d="M65.954,92.914 L65.895,93.055 L65.754,93.114 L65.612,93.055 L65.554,92.914 L65.612,92.772 L65.754,92.714 L65.895,92.772 Z" fill="none"/>
<path d="M65.774,93.833 L65.716,93.974 L65.574,94.033 L65.433,93.974 L65.374,93.833 L65.433,93.691 L65.574,93.633 L65.716,93.691 Z" fill="none"/>
<path d="M78.600,86.550 L78.600,88.818" fill="none"/>
<path d="M78.000,87.150 L78.000,88.218" fill="none"/>
<path d="M80.239,88.064 L80.180,88.206 L80.039,88.264 L79.897,88.206 L79.839,88.064 L79.897,87.923 L80.039,87.864 L80.180,87.923 Z" fill="none"/>
<path d="M88.200,91.643 L88.200,93.985" fill="none"/>
<path d="M87.600,91.643 L87.600,93.385" fill="none"/>
<path d="M87.000,91.643 L87.000,92.785" fill="none"/>
<path d="M86.400,91.643 L86.400,92.185" fill="none"/>
<path d="M87.304,93.753 L87.245,93.894 L87.104,93.953 L86.962,93.894 L86.904,93.753 L86.962,93.612 L87.104,93.553 L87.245,93.612 Z" fill="none"/>
<path d="M103.800,91.643 L103.800,91.985" fill="none"/>
<path d="M103.200,91.643 L103.200,92.585" fill="none"/>
<path d="M102.600,91.643 L102.600,93.185" fill="none"/>
<path d="M102.000,91.643 L102.000,93.785" fill="none"/>
<path d="M103.989,93.002 L103.931,93.144 L103.789,93.202 L103.648,93.144 L103.589,93.002 L103.648,92.861 L103.789,92.802 L103.931,92.861 Z" fill="none"/>
<path d="M104.018,93.900 L103.960,94.041 L103.818,94.100 L103.677,94.041 L103.618,93.900 L103.677,93.758 L103.818,93.700 L103.960,93.758 Z" fill="none"/>
<path d="M108.600,91.643 L108.600,94.013" fill="none"/>
<path d="M108.000,91.643 L108.000,93.413" fill="none"/>
<path d="M107.400,91.643 L107.400,92.813" fill="none"/>
<path d="M106.800,91.643 L106.800,92.213" fill="none"/>
<path d="M106.545,93.023 L106.487,93.165 L106.345,93.223 L106.204,93.165 L106.145,93.023 L106.204,92.882 L106.345,92.823 L106.487,92.882 Z" fill="none"/>
<path d="M106.697,93.766 L106.638,93.907 L106.497,93.966 L106.355,93.907 L106.297,93.766 L106.355,93.624 L106.497,93.566 L106.638,93.624 Z" fill="none"/>
<path d="M123.000,98.150 L123.000,98.901" fill="none"/>
<path d="M122.400,97.550 L122.400,98.901" fill="none"/>
<path d="M121.800,97.430 L121.800,98.901" fill="none"/>
<path d="M121.200,98.030 L121.200,98.901" fill="none"/>
<path d="M132.600,87.378 L132.600,87.989" fill="none"/>
<path d="M132.000,86.778 L132.000,88.589" fill="none"/>
<path d="M131.400,86.178 L131.400,89.189" fill="none"/>
<path d="M130.455,87.198 L130.397,87.339 L130.255,87.398 L130.114,87.339 L130.055,87.198 L130.114,87.056 L130.255,86.998 L130.397,87.056 Z" fill="none"/>
<path d="M135.000,87.178 L135.000,87.631" fill="none"/>
<path d="M134.400,86.578 L134.400,87.631" fill="none"/>
<path d="M133.800,85.978 L133.800,87.631" fill="none"/>
<path d="M133.200,85.378 L133.200,87.631" fill="none"/>
<path d="M134.981,85.710 L134.922,85.852 L134.781,85.910 L134.639,85.852 L134.581,85.710 L134.639,85.569 L134.781,85.510 L134.922,85.569 Z" fill="none"/>
<path d="M153.000,87.407 L153.000,87.960" fill="none"/>
<path d="M152.400,86.807 L152.400,88.560" fill="none"/>
<path d="M151.800,86.207 L151.800,89.160" fill="none"/>
<path d="M150.874,87.985 L150.816,88.127 L150.674,88.185 L150.533,88.127 L150.474,87.985 L150.533,87.844 L150.674,87.785 L150.816,87.844 Z" fill="none"/>
<path d="M160.200,86.435 L160.200,88.933" fill="none"/>
<path d="M159.600,87.035 L159.600,88.333" fill="none"/>
<path d="M161.799,87.057 L161.740,87.198 L161.599,87.257 L161.457,87.198 L161.399,87.057 L161.457,86.916 L161.599,86.857 L161.740,86.916 Z" fill="none"/>
<path d="M161.727,88.094 L161.669,88.236 L161.527,88.294 L161.386,88.236 L161.327,88.094 L161.386,87.953 L161.527,87.894 L161.669,87.953 Z" fill="none"/>
<path d="M53.400,121.015 L53.400,121.583" fill="none"/>
<path d="M52.800,120.415 L52.800,121.583" fill="none"/>
<path d="M52.200,119.815 L52.200,121.583" fill="none"/>
<path d="M51.600,119.215 L51.600,121.583" fill="none"/>
<path d="M53.350,119.730 L53.291,119.872 L53.150,119.930 L53.008,119.872 L52.950,119.730 L53.008,119.589 L53.150,119.530 L53.291,119.589 Z" fill="none"/>
<path d="M61.800,132.015 L61.800,132.853" fill="none"/>
<path d="M61.200,131.415 L61.200,132.853" fill="none"/>
<path d="M60.600,131.468 L60.600,132.853" fill="none"/>
<path d="M60.000,132.068 L60.000,132.853" fill="none"/>
<path d="M60.279,133.545 L60.221,133.686 L60.079,133.745 L59.938,133.686 L59.879,133.545 L59.938,133.404 L60.079,133.345 L60.221,133.404 Z" fill="none"/>
<path d="M61.366,133.687 L61.307,133.829 L61.166,133.887 L61.025,133.829 L60.966,133.687 L61.025,133.546 L61.166,133.487 L61.307,133.546 Z" fill="none"/>
<path d="M61.153,134.391 L61.094,134.533 L60.953,134.591 L60.811,134.533 L60.753,134.391 L60.811,134.250 L60.953,134.191 L61.094,134.250 Z" fill="none"/>
<path d="M78.600,120.502 L78.600,122.770" fill="none"/>
<path d="M78.000,121.102 L78.000,122.170" fill="none"/>
<path d="M83.400,125.595 L83.400,125.965" fill="none"/>
<path d="M82.800,125.595 L82.800,126.565" fill="none"/>
<path d="M82.200,125.595 L82.200,127.165" fill="none"/>
<path d="M81.600,125.595 L81.600,127.765" fill="none"/>
<path d="M83.018,127.892 L82.960,128.034 L82.818,128.092 L82.677,128.034 L82.618,127.892 L82.677,127.751 L82.818,127.692 L82.960,127.751 Z" fill="none"/>
<path d="M83.706,126.797 L83.647,126.938 L83.506,126.997 L83.365,126.938 L83.306,126.797 L83.365,126.655 L83.506,126.597 L83.647,126.655 Z" fill="none"/>
<path d="M83.833,127.644 L83.775,127.785 L83.633,127.844 L83.492,127.785 L83.433,127.644 L83.492,127.502 L83.633,127.444 L83.775,127.502 Z" fill="none"/>
<path d="M99.000,120.473 L99.000,122.799" fill="none"/>
<path d="M98.400,121.073 L98.400,122.199" fill="none"/>
<path d="M102.600,132.073 L102.600,132.853" fill="none"/>
<path d="M102.000,131.473 L102.000,132.853" fill="none"/>
<path d="M101.400,131.411 L101.400,132.853" fill="none"/>
<path d="M100.800,132.011 L100.800,132.853" fill="none"/>
<path d="M101.110,133.504 L101.051,133.645 L100.910,133.704 L100.768,133.645 L100.710,133.504 L100.768,133.362 L100.910,133.304 L101.051,133.362 Z" fill="none"/>
<path d="M102.131,133.376 L102.073,133.517 L101.931,133.576 L101.790,133.517 L101.731,133.376 L101.790,133.235 L101.931,133.176 L102.073,133.235 Z" fill="none"/>
<path d="M112.200,121.302 L112.200,121.970" fill="none"/>
<path d="M111.600,120.702 L111.600,122.570" fill="none"/>
<path d="M111.000,120.102 L111.000,123.170" fill="none"/>
<path d="M109.970,121.064 L109.912,121.205 L109.770,121.264 L109.629,121.205 L109.570,121.064 L109.629,120.923 L109.770,120.864 L109.912,120.923 Z" fill="none"/>
<path d="M110.157,121.923 L110.099,122.064 L109.957,122.123 L109.816,122.064 L109.757,121.923 L109.816,121.781 L109.957,121.723 L110.099,121.781 Z" fill="none"/>
<path d="M124.200,125.595 L124.200,125.908" fill="none"/>
<path d="M123.600,125.595 L123.600,126.508" fill="none"/>
<path d="M123.000,125.595 L123.000,127.108" fill="none"/>
<path d="M122.400,125.595 L122.400,127.708" fill="none"/>
<path d="M123.652,127.918 L123.593,128.060 L123.452,128.118 L123.311,128.060 L123.252,127.918 L123.311,127.777 L123.452,127.718 L123.593,127.777 Z" fill="none"/>
<path d="M124.415,126.926 L124.357,127.067 L124.215,127.126 L124.074,127.067 L124.015,126.926 L124.074,126.784 L124.215,126.726 L124.357,126.784 Z" fill="none"/>
<path d="M144.000,125.595 L144.000,126.479" fill="none"/>
<path d="M143.400,125.595 L143.400,127.079" fill="none"/>
<path d="M142.800,125.595 L142.800,127.679" fill="none"/>
<path d="M143.911,127.550 L143.852,127.691 L143.711,127.750 L143.570,127.691 L143.511,127.550 L143.570,127.408 L143.711,127.350 L143.852,127.408 Z" fill="none"/>
<path d="M144.747,126.694 L144.689,126.835 L144.547,126.894 L144.406,126.835 L144.347,126.694 L144.406,126.552 L144.547,126.494 L144.689,126.552 Z" fill="none"/>
<path d="M143.400,132.131 L143.400,132.853" fill="none"/>
<path d="M142.800,131.531 L142.800,132.853" fill="none"/>
<path d="M142.200,131.353 L142.200,132.853" fill="none"/>
<path d="M141.600,131.953 L141.600,132.853" fill="none"/>
<path d="M142.863,133.422 L142.804,133.563 L142.663,133.622 L142.521,133.563 L142.463,133.422 L142.521,133.280 L142.663,133.222 L142.804,133.280 Z" fill="none"/>
<path d="M143.569,133.324 L143.511,133.466 L143.369,133.524 L143.228,133.466 L143.169,133.324 L143.228,133.183 L143.369,133.124 L143.511,133.183 Z" fill="none"/>
<path d="M43.200,154.953 L43.200,155.535" fill="none"/>
<path d="M42.600,154.353 L42.600,155.535" fill="none"/>
<path d="M42.000,153.753 L42.000,155.535" fill="none"/>
<path d="M41.400,153.153 L41.400,155.535" fill="none"/>
<path d="M43.265,153.866 L43.206,154.007 L43.065,154.066 L42.923,154.007 L42.865,153.866 L42.923,153.724 L43.065,153.666 L43.206,153.724 Z" fill="none"/>
<path d="M48.600,153.897 L48.600,157.279" fill="none"/>
<path d="M48.000,154.497 L48.000,156.679" fill="none"/>
<path d="M47.400,155.097 L47.400,156.079" fill="none"/>
<path d="M49.830,155.882 L49.771,156.024 L49.630,156.082 L49.488,156.024 L49.430,155.882 L49.488,155.741 L49.630,155.682 L49.771,155.741 Z" fill="none"/>
<path d="M63.600,168.978 L63.600,169.532" fill="none"/>
<path d="M63.000,168.978 L63.000,170.132" fill="none"/>
<path d="M62.400,168.978 L62.400,170.732" fill="none"/>
<path d="M61.800,168.978 L61.800,171.332" fill="none"/>
<path d="M58.800,166.120 L58.800,166.805" fill="none"/>
<path d="M58.200,165.520 L58.200,166.805" fill="none"/>
<path d="M57.600,165.268 L57.600,166.805" fill="none"/>
<path d="M57.000,165.868 L57.000,166.805" fill="none"/>
<path d="M56.400,166.468 L56.400,166.805" fill="none"/>
<path d="M84.000,168.978 L84.000,169.503" fill="none"/>
<path d="M83.400,168.978 L83.400,170.103" fill="none"/>
<path d="M82.800,168.978 L82.800,170.703" fill="none"/>
<path d="M82.200,168.978 L82.200,171.303" fill="none"/>
<path d="M84.154,170.996 L84.096,171.137 L83.954,171.196 L83.813,171.137 L83.754,170.996 L83.813,170.854 L83.954,170.796 L84.096,170.854 Z" fill="none"/>
<path d="M78.000,159.547 L78.000,161.874" fill="none"/>
<path d="M77.400,159.547 L77.400,161.274" fill="none"/>
<path d="M76.800,159.547 L76.800,160.674" fill="none"/>
<path d="M76.200,159.547 L76.200,160.074" fill="none"/>
<path d="M77.000,161.473 L76.942,161.614 L76.800,161.673 L76.659,161.614 L76.600,161.473 L76.659,161.332 L76.800,161.273 L76.942,161.332 Z" fill="none"/>
<path d="M104.400,168.978 L104.400,169.474" fill="none"/>
<path d="M103.800,168.978 L103.800,170.074" fill="none"/>
<path d="M103.200,168.978 L103.200,170.674" fill="none"/>
<path d="M102.600,168.978 L102.600,171.274" fill="none"/>
<path d="M104.312,170.692 L104.253,170.833 L104.112,170.892 L103.970,170.833 L103.912,170.692 L103.970,170.551 L104.112,170.492 L104.253,170.551 Z" fill="none"/>
<path d="M102.000,155.239 L102.000,155.936" fill="none"/>
<path d="M101.400,154.639 L101.400,156.536" fill="none"/>
<path d="M100.800,154.039 L100.800,157.136" fill="none"/>
<path d="M124.800,168.978 L124.800,169.446" fill="none"/>
<path d="M124.200,168.978 L124.200,170.046" fill="none"/>
<path d="M123.600,168.978 L123.600,170.646" fill="none"/>
<path d="M123.000,168.978 L123.000,171.246" fill="none"/>
<path d="M124.720,171.028 L124.661,171.170 L124.520,171.228 L124.378,171.170 L124.320,171.028 L124.378,170.887 L124.520,170.828 L124.661,170.887 Z" fill="none"/>
<path d="M124.800,155.068 L124.800,155.535" fill="none"/>
<path d="M124.200,154.468 L124.200,155.535" fill="none"/>
<path d="M123.600,153.868 L123.600,155.535" fill="none"/>
<path d="M123.000,153.268 L123.000,155.535" fill="none"/>
<path d="M124.887,154.021 L124.828,154.163 L124.687,154.221 L124.545,154.163 L124.487,154.021 L124.545,153.880 L124.687,153.821 L124.828,153.880 Z" fill="none"/>
<path d="M145.200,168.978 L145.200,169.417" fill="none"/>
<path d="M144.600,168.978 L144.600,170.017" fill="none"/>
<path d="M144.000,168.978 L144.000,170.617" fill="none"/>
<path d="M143.400,168.978 L143.400,171.217" fill="none"/>
<path d="M144.909,170.909 L144.850,171.051 L144.709,171.109 L144.567,171.051 L144.509,170.909 L144.567,170.768 L144.709,170.709 L144.850,170.768 Z" fill="none"/>
<path d="M150.000,154.353 L150.000,156.823" fill="none"/>
<path d="M149.400,154.953 L149.400,156.223" fill="none"/>
<path d="M151.505,155.883 L151.447,156.024 L151.305,156.083 L151.164,156.024 L151.105,155.883 L151.164,155.741 L151.305,155.683 L151.447,155.741 Z" fill="none"/>
<path d="M43.200,188.905 L43.200,189.487" fill="none"/>
<path d="M42.600,188.305 L42.600,189.487" fill="none"/>
<path d="M42.000,187.705 L42.000,189.487" fill="none"/>
<path d="M41.400,187.105 L41.400,189.487" fill="none"/>
<path d="M43.079,187.464 L43.020,187.606 L42.879,187.664 L42.738,187.606 L42.679,187.464 L42.738,187.323 L42.879,187.264 L43.020,187.323 Z" fill="none"/>
<path d="M48.600,187.849 L48.600,191.231" fill="none"/>
<path d="M48.000,188.449 L48.000,190.631" fill="none"/>
<path d="M47.400,189.049 L47.400,190.031" fill="none"/>
<path d="M49.703,189.094 L49.644,189.235 L49.503,189.294 L49.362,189.235 L49.303,189.094 L49.362,188.952 L49.503,188.894 L49.644,188.952 Z" fill="none"/>
<path d="M49.748,190.012 L49.690,190.153 L49.548,190.212 L49.407,190.153 L49.348,190.012 L49.407,189.870 L49.548,189.812 L49.690,189.870 Z" fill="none"/>
<path d="M63.600,202.930 L63.600,203.484" fill="none"/>
<path d="M63.000,202.930 L63.000,204.084" fill="none"/>
<path d="M62.400,202.930 L62.400,204.684" fill="none"/>
<path d="M61.800,202.930 L61.800,205.284" fill="none"/>
<path d="M63.599,204.431 L63.541,204.572 L63.399,204.631 L63.258,204.572 L63.199,204.431 L63.258,204.289 L63.399,204.231 L63.541,204.289 Z" fill="none"/>
<path d="M73.200,193.499 L73.200,193.884" fill="none"/>
<path d="M72.600,193.499 L72.600,194.484" fill="none"/>
<path d="M72.000,193.499 L72.000,195.084" fill="none"/>
<path d="M71.400,193.499 L71.400,195.684" fill="none"/>
<path d="M84.000,202.930 L84.000,203.455" fill="none"/>
<path d="M83.400,202.930 L83.400,204.055" fill="none"/>
<path d="M82.800,202.930 L82.800,204.655" fill="none"/>
<path d="M82.200,202.930 L82.200,205.255" fill="none"/>
<path d="M83.692,204.682 L83.634,204.823 L83.492,204.882 L83.351,204.823 L83.292,204.682 L83.351,204.541 L83.492,204.482 L83.634,204.541 Z" fill="none"/>
<path d="M92.400,199.963 L92.400,200.757" fill="none"/>
<path d="M91.800,199.363 L91.800,200.757" fill="none"/>
<path d="M91.200,199.329 L91.200,200.757" fill="none"/>
<path d="M90.600,199.929 L90.600,200.757" fill="none"/>
<path d="M99.600,200.129 L99.600,200.757" fill="none"/>
<path d="M99.000,199.529 L99.000,200.757" fill="none"/>
<path d="M98.400,199.163 L98.400,200.757" fill="none"/>
<path d="M97.800,199.763 L97.800,200.757" fill="none"/>
<path d="M97.200,200.363 L97.200,200.757" fill="none"/>
<path d="M98.437,201.296 L98.379,201.437 L98.237,201.496 L98.096,201.437 L98.037,201.296 L98.096,201.154 L98.237,201.096 L98.379,201.154 Z" fill="none"/>
<path d="M98.780,202.207 L98.722,202.349 L98.580,202.407 L98.439,202.349 L98.380,202.207 L98.439,202.066 L98.580,202.007 L98.722,202.066 Z" fill="none"/>
<path d="M98.400,193.499 L98.400,195.855" fill="none"/>
<path d="M97.800,193.499 L97.800,195.255" fill="none"/>
<path d="M97.200,193.499 L97.200,194.655" fill="none"/>
<path d="M96.600,193.499 L96.600,194.055" fill="none"/>
<path d="M96.349,195.564 L96.291,195.705 L96.149,195.764 L96.008,195.705 L95.949,195.564 L96.008,195.422 L96.149,195.364 L96.291,195.422 Z" fill="none"/>
<path d="M97.566,195.787 L97.507,195.928 L97.366,195.987 L97.224,195.928 L97.166,195.787 L97.224,195.645 L97.366,195.587 L97.507,195.645 Z" fill="none"/>
<path d="M120.000,200.158 L120.000,200.757" fill="none"/>
<path d="M119.400,199.558 L119.400,200.757" fill="none"/>
<path d="M118.800,199.134 L118.800,200.757" fill="none"/>
<path d="M118.200,199.734 L118.200,200.757" fill="none"/>
<path d="M117.600,200.334 L117.600,200.757" fill="none"/>
<path d="M122.400,189.220 L122.400,189.859" fill="none"/>
<path d="M121.800,188.620 L121.800,190.459" fill="none"/>
<path d="M121.200,188.020 L121.200,191.059" fill="none"/>
<path d="M140.400,200.187 L140.400,200.757" fill="none"/>
<path d="M139.800,199.587 L139.800,200.757" fill="none"/>
<path d="M139.200,199.105 L139.200,200.757" fill="none"/>
<path d="M138.600,199.705 L138.600,200.757" fill="none"/>
<path d="M138.000,200.305 L138.000,200.757" fill="none"/>
<path d="M140.373,201.235 L140.314,201.377 L140.173,201.435 L140.031,201.377 L139.973,201.235 L140.031,201.094 L140.173,201.035 L140.314,201.094 Z" fill="none"/>
<path d="M145.200,189.049 L145.200,189.487" fill="none"/>
<path d="M144.600,188.449 L144.600,189.487" fill="none"/>
<path d="M144.000,187.849 L144.000,189.487" fill="none"/>
<path d="M143.400,187.249 L143.400,189.487" fill="none"/>
<path d="M144.903,187.878 L144.844,188.020 L144.703,188.078 L144.561,188.020 L144.503,187.878 L144.561,187.737 L144.703,187.678 L144.844,187.737 Z" fill="none"/>
</g>
<g id="pen-text" stroke="#132c42" stroke-width="0.3" stroke-linecap="round" stroke-linejoin="round">
<path d="M32.000,48.140 L33.886,42.481 L35.773,48.140" fill="none"/>
<path d="M32.755,46.159 L35.018,46.159" fill="none"/>
<path d="M52.371,45.311 L52.371,42.481 L54.823,42.481 L55.767,43.236 L55.767,44.556 L54.823,45.311 L52.371,45.311 L52.371,48.140 L55.012,48.140 L56.144,47.197 L56.144,46.254 L55.012,45.311" fill="none"/>
<path d="M76.515,43.424 L75.572,42.481 L73.686,42.481 L72.743,43.424 L72.743,47.197 L73.686,48.140 L75.572,48.140 L76.515,47.197" fill="none"/>
<path d="M93.114,42.481 L93.114,48.140 L95.377,48.140 L96.886,46.631 L96.886,43.990 L95.377,42.481 L93.114,42.481" fill="none"/>
<path d="M117.257,42.481 L113.485,42.481 L113.485,48.140 L117.257,48.140" fill="none"/>
<path d="M113.485,45.311 L116.314,45.311" fill="none"/>
<path d="M137.629,42.481 L133.856,42.481 L133.856,48.140" fill="none"/>
<path d="M133.856,45.311 L136.686,45.311" fill="none"/>
<path d="M158.000,43.424 L157.057,42.481 L155.171,42.481 L154.227,43.424 L154.227,47.197 L155.171,48.140 L157.057,48.140 L158.000,47.197 L158.000,45.688 L156.397,45.688" fill="none"/>
<path d="M32.000,76.433 L32.000,82.092" fill="none"/>
<path d="M35.773,76.433 L35.773,82.092" fill="none"/>
<path d="M32.000,79.263 L35.773,79.263" fill="none"/>
<path d="M54.258,76.433 L54.258,82.092" fill="none"/>
<path d="M53.126,76.433 L55.389,76.433" fill="none"/>
<path d="M53.126,82.092 L55.389,82.092" fill="none"/>
<path d="M76.515,76.433 L76.515,81.149 L75.572,82.092 L73.686,82.092 L72.743,81.149" fill="none"/>
<path d="M93.114,76.433 L93.114,82.092" fill="none"/>
<path d="M96.886,76.433 L93.114,79.829" fill="none"/>
<path d="M94.434,78.885 L96.886,82.092" fill="none"/>
<path d="M113.485,76.433 L113.485,82.092 L117.257,82.092" fill="none"/>
<path d="M133.856,82.092 L133.856,76.433 L135.742,79.640 L137.629,76.433 L137.629,82.092" fill="none"/>
<path d="M154.227,82.092 L154.227,76.433 L158.000,82.092 L158.000,76.433" fill="none"/>
<path d="M32.943,110.385 L34.829,110.385 L35.773,111.329 L35.773,115.101 L34.829,116.044 L32.943,116.044 L32.000,115.101 L32.000,111.329 L32.943,110.385" fill="none"/>
<path d="M52.371,116.044 L52.371,110.385 L55.201,110.385 L56.144,111.329 L56.144,112.272 L55.201,113.215 L52.371,113.215" fill="none"/>
<path d="M73.686,110.385 L75.572,110.385 L76.515,111.329 L76.515,115.101 L75.572,116.044 L73.686,116.044 L72.743,115.101 L72.743,111.329 L73.686,110.385" fill="none"/>
<path d="M75.195,114.535 L76.704,116.233" fill="none"/>
<path d="M93.114,116.044 L93.114,110.385 L95.943,110.385 L96.886,111.329 L96.886,112.272 L95.943,113.215 L93.114,113.215" fill="none"/>
<path d="M95.000,113.215 L96.886,116.044" fill="none"/>
<path d="M117.257,111.329 L116.314,110.385 L114.428,110.385 L113.485,111.329 L113.485,112.272 L114.428,113.215 L116.314,113.215 L117.257,114.158 L117.257,115.101 L116.314,116.044 L114.428,116.044 L113.485,115.101" fill="none"/>
<path d="M133.856,110.385 L137.629,110.385" fill="none"/>
<path d="M135.742,110.385 L135.742,116.044" fill="none"/>
<path d="M154.227,110.385 L154.227,115.101 L155.171,116.044 L157.057,116.044 L158.000,115.101 L158.000,110.385" fill="none"/>
<path d="M52.371,144.337 L54.258,149.996 L56.144,144.337" fill="none"/>
<path d="M72.743,144.337 L73.686,149.996 L74.629,146.601 L75.572,149.996 L76.515,144.337" fill="none"/>
<path d="M93.114,144.337 L96.886,149.996" fill="none"/>
<path d="M96.886,144.337 L93.114,149.996" fill="none"/>
<path d="M113.485,144.337 L115.371,147.167 L117.257,144.337" fill="none"/>
<path d="M115.371,147.167 L115.371,149.996" fill="none"/>
<path d="M133.856,144.337 L137.629,144.337 L133.856,149.996 L137.629,149.996" fill="none"/>
<path d="M43.412,178.761 L43.129,183.477" fill="none"/>
<path d="M45.015,178.761 L44.732,183.477" fill="none"/>
<path d="M42.186,180.176 L45.958,180.176" fill="none"/>
<path d="M42.186,182.062 L45.958,182.062" fill="none"/>
<path d="M63.406,179.516 L64.443,178.290 L64.443,183.948" fill="none"/>
<path d="M63.311,183.948 L65.575,183.948" fill="none"/>
<path d="M82.928,179.233 L83.871,178.290 L85.757,178.290 L86.701,179.233 L86.701,180.364 L82.928,183.948 L86.701,183.948" fill="none"/>
<path d="M103.299,178.950 L104.243,178.290 L106.129,178.290 L107.072,179.233 L107.072,180.176 L106.129,181.119 L104.808,181.119" fill="none"/>
<path d="M106.129,181.119 L107.072,182.062 L107.072,183.005 L106.129,183.948 L104.243,183.948 L103.299,183.288" fill="none"/>
<path d="M126.500,183.948 L126.500,178.290 L123.671,182.251 L127.443,182.251" fill="none"/>
<path d="M147.814,178.290 L144.419,178.290 L144.042,180.930 L146.871,180.742 L147.814,181.685 L147.814,183.005 L146.871,183.948 L144.985,183.948 L144.042,183.194" fill="none"/>
<path d="M43.412,212.713 L43.129,217.429" fill="none"/>
<path d="M45.015,212.713 L44.732,217.429" fill="none"/>
<path d="M42.186,214.128 L45.958,214.128" fill="none"/>
<path d="M42.186,216.014 L45.958,216.014" fill="none"/>
<path d="M65.952,212.619 L65.386,212.242 L63.500,212.242 L62.557,213.185 L62.557,216.957 L63.500,217.900 L65.386,217.900 L66.329,216.957 L66.329,215.825 L65.386,214.882 L63.500,214.882 L62.557,215.825" fill="none"/>
<path d="M82.928,212.242 L86.701,212.242 L84.249,217.900" fill="none"/>
<path d="M104.243,215.071 L103.299,214.128 L103.299,213.185 L104.243,212.242 L106.129,212.242 L107.072,213.185 L107.072,214.128 L106.129,215.071 L104.243,215.071 L103.299,216.014 L103.299,216.957 L104.243,217.900 L106.129,217.900 L107.072,216.957 L107.072,216.014 L106.129,215.071" fill="none"/>
<path d="M124.048,217.523 L124.614,217.900 L126.500,217.900 L127.443,216.957 L127.443,213.185 L126.500,212.242 L124.614,212.242 L123.671,213.185 L123.671,214.316 L124.614,215.260 L126.500,215.260 L127.443,214.316" fill="none"/>
<path d="M144.985,212.242 L146.871,212.242 L147.814,213.185 L147.814,216.957 L146.871,217.900 L144.985,217.900 L144.042,216.957 L144.042,213.185 L144.985,212.242" fill="none"/>
<path d="M147.248,212.996 L144.608,217.146" fill="none"/>
<path d="M70.920,222.700 L68.120,222.700 L68.120,226.900" fill="none"/>
<path d="M68.120,224.800 L70.220,224.800" fill="none"/>
<path d="M72.040,222.700 L72.040,226.900 L74.840,226.900" fill="none"/>
<path d="M75.960,226.900 L77.360,222.700 L78.760,226.900" fill="none"/>
<path d="M76.520,225.430 L78.200,225.430" fill="none"/>
<path d="M82.680,223.400 L81.980,222.700 L80.580,222.700 L79.880,223.400 L79.880,226.200 L80.580,226.900 L81.980,226.900 L82.680,226.200 L82.680,225.080 L81.490,225.080" fill="none"/>
<path d="M90.520,223.400 L89.820,222.700 L88.420,222.700 L87.720,223.400 L87.720,224.100 L88.420,224.800 L89.820,224.800 L90.520,225.500 L90.520,226.200 L89.820,226.900 L88.420,226.900 L87.720,226.200" fill="none"/>
<path d="M94.440,222.700 L91.640,222.700 L91.640,226.900 L94.440,226.900" fill="none"/>
<path d="M91.640,224.800 L93.740,224.800" fill="none"/>
<path d="M95.560,226.900 L95.560,222.700 L96.960,225.080 L98.360,222.700 L98.360,226.900" fill="none"/>
<path d="M99.480,226.900 L100.880,222.700 L102.280,226.900" fill="none"/>
<path d="M100.040,225.430 L101.720,225.430" fill="none"/>
<path d="M103.400,226.900 L103.400,222.700 L105.500,222.700 L106.200,223.400 L106.200,224.100 L105.500,224.800 L103.400,224.800" fill="none"/>
<path d="M107.320,222.700 L107.320,226.900" fill="none"/>
<path d="M110.120,222.700 L110.120,226.900" fill="none"/>
<path d="M107.320,224.800 L110.120,224.800" fill="none"/>
<path d="M111.940,222.700 L113.340,222.700 L114.040,223.400 L114.040,226.200 L113.340,226.900 L111.940,226.900 L111.240,226.200 L111.240,223.400 L111.940,222.700" fill="none"/>
<path d="M115.160,226.900 L115.160,222.700 L117.260,222.700 L117.960,223.400 L117.960,224.100 L117.260,224.800 L115.160,224.800" fill="none"/>
<path d="M116.560,224.800 L117.960,226.900" fill="none"/>
<path d="M121.880,222.700 L119.080,222.700 L119.080,226.900 L121.880,226.900" fill="none"/>
<path d="M119.080,224.800 L121.180,224.800" fill="none"/>
</g>
</svg>